<?xml version="1.0" encoding="UTF-8"?>
<svg id="Layer_1" data-name="Layer 1" xmlns="http://www.w3.org/2000/svg" xmlns:xlink="http://www.w3.org/1999/xlink" viewBox="0 0 170.08 170.08">
  <defs>
    <style>
      .cls-1 {
        fill: url(#linear-gradient);
      }

      .cls-1, .cls-2, .cls-3, .cls-4 {
        fill-rule: evenodd;
        stroke-width: 0px;
      }

      .cls-2 {
        fill: #dbdbdb;
      }

      .cls-3 {
        fill: #fff;
      }

      .cls-4 {
        fill: #273c83;
      }
    </style>
    <linearGradient id="linear-gradient" x1="6.29" y1="85.04" x2="163.79" y2="85.04" gradientUnits="userSpaceOnUse">
      <stop offset="0" stop-color="#50c8ef"/>
      <stop offset=".13" stop-color="#70d0f0"/>
      <stop offset=".27" stop-color="#8fd9f2"/>
      <stop offset=".43" stop-color="#a6dff3"/>
      <stop offset=".6" stop-color="#b7e4f4"/>
      <stop offset=".78" stop-color="#c1e7f4"/>
      <stop offset="1" stop-color="#c5e8f5"/>
    </linearGradient>
  </defs>
  <path class="cls-1" d="M85.04,6.29c43.49,0,78.75,35.26,78.75,78.75s-35.26,78.75-78.75,78.75S6.29,128.53,6.29,85.04,41.55,6.29,85.04,6.29h0Z"/>
  <path class="cls-4" d="M82.09,149.56c-28.8-2.35-27.75-58.16-25.85-82.63,1.8-23.21,11.79-45.66,26.08-43.4,21.21-6.53,33.15,17.47,34.73,42.52,1.56,24.78,8.94,86.04-34.96,83.51h0Z"/>
  <path class="cls-3" d="M73.58,72.14s2.64,18.36-.43,23.51c-5.06,6.43-13.47,8.27-25.45,14.11,25.88,60.33,59.91,46.69,78.31.75-18.57-10.54-19.52-9.85-24.16-14.81-2.55-2.73-3.5-9.69-3.89-24.61l-24.38,1.05h0Z"/>
  <path class="cls-2" d="M73.88,74.55l24.32,3.43c.5,10.26,1.52,15.45,3.64,17.72.06.06.12.13.18.19-16.78,5.27-24.98-5.86-27.57-15.1-.16-2.44-.38-4.66-.56-6.24h0Z"/>
  <path class="cls-3" d="M66.21,54.33c-1.84,0-2.93,4.13-1.9,8.13,1.04,4,1.6,7.59,3.44,7.6,1.84,0,1.03-2.59,1.04-7.26.01-4.67-.74-8.46-2.58-8.47h0Z"/>
  <path class="cls-3" d="M107.72,54.38c1.84,0,2.91,4.15,1.86,8.14-1.06,3.99-1.64,7.58-3.48,7.58-1.84,0-1.01-2.59-1-7.26.01-4.67.79-8.46,2.62-8.45h0Z"/>
  <path class="cls-3" d="M86.86,30.18c20.95,0,19.14,12.46,19.09,29.52-.05,17.05-11.69,28.41-19.45,27.72-7.01-.24-18.7-10.14-18.65-27.2.04-13.04-1.48-23.67,7.57-27.99,2.79-1.33,6.5-2.06,11.44-2.06h0Z"/>
  <path class="cls-4" d="M67.73,56.48c2.58-10.23,4.76-12.94,11.91-21.06,13.78,4.59,24.24,8,26.51,22.86,2.77-2.04,1.89-7.14,1.75-9.48-.35-11.27-10.75-23.49-21.18-22.19-14.88,2.95-17.53,7.38-22.17,25.31l3.18,4.56h0Z"/>
  <path class="cls-4" d="M141.8,139.61l-3.45-18.41c-.93-4.89-6.41-10.11-11.54-12.16-6.81-3.3-11.71-4.44-17.94-8.06-7.54,31.15-41.46,21.97-42.81.15-8.95,3.28-10.27,4.27-19.52,7.86,0,0-9.93,3.23-12.44,13.14l-4.57,18.77c14.24,14.15,33.85,22.89,55.51,22.89s42.44-9.27,56.76-24.17h0Z"/>
</svg>