<?xml version="1.0" encoding="UTF-8"?>
<svg id="Layer_1" data-name="Layer 1" xmlns="http://www.w3.org/2000/svg" xmlns:xlink="http://www.w3.org/1999/xlink" viewBox="0 0 170.08 170.08">
  <defs>
    <style>
      .cls-1 {
        fill: url(#linear-gradient);
      }

      .cls-1, .cls-2, .cls-3, .cls-4 {
        fill-rule: evenodd;
        stroke-width: 0px;
      }

      .cls-2 {
        fill: #dbdbdb;
      }

      .cls-3 {
        fill: #fff;
      }

      .cls-4 {
        fill: #273c83;
      }
    </style>
    <linearGradient id="linear-gradient" x1="6.29" y1="85.04" x2="163.79" y2="85.04" gradientUnits="userSpaceOnUse">
      <stop offset="0" stop-color="#50c8ef"/>
      <stop offset=".13" stop-color="#70d0f0"/>
      <stop offset=".27" stop-color="#8fd9f2"/>
      <stop offset=".43" stop-color="#a6dff3"/>
      <stop offset=".6" stop-color="#b7e4f4"/>
      <stop offset=".78" stop-color="#c1e7f4"/>
      <stop offset="1" stop-color="#c5e8f5"/>
    </linearGradient>
  </defs>
  <path class="cls-1" d="M85.04,6.29c43.49,0,78.75,35.26,78.75,78.75s-35.26,78.75-78.75,78.75S6.29,128.53,6.29,85.04,41.55,6.29,85.04,6.29h0Z"/>
  <path class="cls-4" d="M123.06,106.73c.08.01.15.03.22.04-.08-.01-.15-.03-.22-.04h0Z"/>
  <path class="cls-4" d="M52.77,104.96c.08-.03.16-.06.24-.08-.08.03-.16.06-.24.08h0Z"/>
  <path class="cls-3" d="M114.82,102.56c-3.18-1.46-9.8-3.53-10.49-8.46-.39-2.81-.42-5.55-.42-6.15-.02-2.68.06-5.43.3-8.31-3.59,6.69-9.52,10.97-18.15,10.79-6.04-.13-11.36-5.15-14.81-11.81.45,3.51.71,6.86.8,10.19,0,.15-.03,1.22-.07,2.37-.17,4.92-5.6,8.45-10.41,10.12,12.34,21.51,39.93,21.97,53.26,1.26h0Z"/>
  <path class="cls-3" d="M86.1,90.53c8.62.18,14.56-4.1,18.15-10.79,1.24-2.31,2.2-4.91,2.89-7.71-.04-1.47.45-3.81.66-6.95.16-2.4.49-4.59.99-6.3,0-.01,0-.02,0-.04-.07.09-.13.18-.21.27-.37-6.06-2.43-16.61-3.3-19.2-1.95-1.62-4.36-4.93-24.91-4.32-2.39-.69-8.93,4.28-9.01,4.4-.73,1.15-1.72,3.45-2.32,6.86-2.01,11.3-.99,8.13-1.66,12.27-.11-.08-.39-.39-.75-.79.03.27.05.53.08.79.41,1.64.68,3.64.8,5.82.09,1.71.27,3.17.41,4.4.7,3.29,1.86,6.54,3.38,9.47,3.45,6.66,8.77,11.68,14.81,11.81h0Z"/>
  <path class="cls-4" d="M66.41,58c.08.09.15.16.22.24.37.4.64.71.75.79.66-4.14-.35-.97,1.66-12.27.6-3.41,1.6-5.7,2.32-6.86,1.37-2.16,33.35,3.87,33.45,3.95.87,2.59,2.58,9.99,3.77,15.17.08-.09.14-.18.21-.27,0,0,0-.01.01-.02.68-2.24,1.67-3.64,3.01-3.56.13,0,.26.04.39.08.43-4.58.28-9.53.06-14.57.13-14.56-16.14-20.28-27.82-19.55-20.52,1.28-24.33,15.31-21.19,34.06,1.87,0,2.67,1.35,3.15,2.8h0Z"/>
  <path class="cls-3" d="M106.37,41.73s-.03.05-.05.07c.03-.01.04-.04.05-.07h0Z"/>
  <path class="cls-3" d="M104.59,43.75c.08.04.15.07.23.1-.01-.03-.09-.06-.23-.1h0Z"/>
  <path class="cls-3" d="M68.32,51.26s-.06,0-.08-.01c.03.01.05.02.08.01h0Z"/>
  <path class="cls-3" d="M68.26,69.25c-.14-1.22-.32-2.69-.41-4.4-.12-2.18-.38-4.18-.8-5.82-.09-.37-.19-.71-.3-1.04-.65-1.96-1.58-3.16-2.82-3.09-.31.02-.6.12-.87.3-1.75,1.16-2.42,5.49-1.02,9.58,1.62,4.71,2.6,8.97,4.97,8.84,1.65-.09,1.56-1.59,1.25-4.37Z"/>
  <path class="cls-3" d="M112.21,55.25c-.12-.04-.25-.07-.39-.08-1.34-.09-2.34,1.31-3.01,3.56,0,.02,0,.04-.01.05-.51,1.71-.84,3.9-.99,6.3-.21,3.14-.69,5.48-.66,6.95.03,1.14.37,1.76,1.41,1.83,2.37.15,3.4-4.09,5.06-8.79,1.57-4.43.7-9.17-1.4-9.82Z"/>
  <path class="cls-2" d="M105.84,97.34c-15.56,2.04-31.72-9.52-34.54-18.6v.02s.01,0,.01,0h0s0,0,0,0h0s0,0,0,0h0s0,0,0,0h0s0,0,0,0h0s0,0,0,0h0s0,0,0,0h0s0,0,0,0h0s0,0,0,0h0s0,0,0,0h0s0,0,0,0h0s0,0,0,0c.03.06.06.11.09.17h0s0,0,0,0h0s0,0,0,0v.02s.01,0,.01,0h0s0,0,0,0h0s0,.01,0,.01h0s0,.01,0,.01h0s0,0,0,0h0s0,0,0,0h0s0,0,0,0h0s0,0,0,0h0s0,0,0,0h0s0,0,0,0h0s0,0,0,0h0s0,0,0,0h0s0,0,0,0h0s0,0,0,0c.02.04.05.09.07.13h0s0,.02,0,.02h0s.01.03.01.03h0s0,0,0,0h0s0,0,0,0h0s.02.04.02.04h0s0,0,0,0h0s0,0,0,0h0s0,0,0,0h0s0,0,0,0h0s0,0,0,0h0s0,0,0,0h0s0,0,0,0h0s0,0,0,0h0s.07.12.07.12h0s0,0,0,0h0s0,0,0,0h0s0,0,0,0h0s0,0,0,0v.02s.01,0,.01,0h0s0,0,0,0h0s0,0,0,0h0s0,0,0,0h0s0,0,0,0h0s0,0,0,0h0s0,.01,0,.01h0s0,0,0,0h0s0,0,0,0h0s0,0,0,0h0s0,0,0,0h0s0,.01,0,.01h0s.09.16.09.16h0s0,0,0,0h0s0,0,0,0h0s0,.02,0,.02h0s0,0,0,0h0s0,.01,0,.01l.03.05h0s0,.01,0,.01h0s0,0,0,0h0s0,0,0,0h0s0,0,0,0h0s0,0,0,0h0s0,0,0,0h0s0,0,0,0h0s.07.12.07.12h0s0,0,0,0h0s.02.04.02.04h0s0,0,0,0h0s0,0,0,0h0s0,0,0,0h0s0,0,0,0h0s0,0,0,0h0s0,0,0,0h0s0,0,0,0h0s0,0,0,0h0s0,0,0,0h0s0,0,0,0h0s0,0,0,0h0s0,0,0,0c.03.05.06.1.09.15h0s0,0,0,0h0s.01.03.01.03h0s0,0,0,0h0s0,0,0,0h0s0,0,0,0h0s0,0,0,0h0s0,0,0,0h0s0,0,0,0h0s0,0,0,0h0s0,0,0,0h0s0,0,0,0h0s0,0,0,0h0s0,0,0,0h0s0,0,0,0h0s0,0,0,0h0s0,0,0,0c.03.05.05.09.08.14h0s0,0,0,0h0s0,0,0,0v.02s.01,0,.01,0h0s0,0,0,0h0s0,0,0,0h0s0,.01,0,.01l.03.04h0s0,.01,0,.01h0s0,0,0,0h0s0,0,0,0h0s0,0,0,0h0s0,0,0,0h0s.08.13.08.13h0s0,0,0,0h0s0,0,0,0l.03.04h0s0,0,0,0h0s0,0,0,0h0s0,0,0,0h0s0,.01,0,.01h0s0,0,0,0h0s0,0,0,0h0s0,.01,0,.01h0s0,0,0,0h0s0,0,0,0h0s0,0,0,0h0s0,0,0,0h0s0,0,0,0h0s0,0,0,0h0s0,0,0,0c.02.04.05.07.07.11h0s0,0,0,0h0s0,0,0,0h0s.03.05.03.05h0s0,0,0,0h0s0,0,0,0h0s0,0,0,0h0s0,0,0,0h0s0,0,0,0h0s0,0,0,0h0s0,0,0,0h0s0,0,0,0h0s0,0,0,0h0s0,0,0,0h0s0,0,0,0h0s0,0,0,0h0s0,0,0,0h0s0,0,0,0h0s0,0,0,0h0s.07.11.07.11h0s0,0,0,0h0s0,0,0,0h0s.03.05.03.05h0s0,0,0,0h0s0,0,0,0h0s0,0,0,0h0s0,0,0,0h0s0,0,0,0h0s0,0,0,0h0s0,0,0,0h0s0,0,0,0h0s0,0,0,0h0s0,0,0,0h0s0,0,0,0h0s0,0,0,0h0s0,0,0,0h0s0,0,0,0h0s0,0,0,0l.07.11h0s0,0,0,0h0s0,0,0,0h0s0,0,0,0l.02.03h0s0,0,0,0h0s0,0,0,0h0s0,0,0,0h0s0,0,0,0h0s0,0,0,0h0s0,.01,0,.01h0s0,0,0,0h0s0,0,0,0h0s0,0,0,0h0s0,0,0,0h0s0,0,0,0h0s0,0,0,0h0s0,0,0,0h0s0,0,0,0h0s0,0,0,0l.07.11h0s0,0,0,0h0s0,0,0,0h0s.02.03.02.03h0s0,0,0,0h0s0,0,0,0h0s0,0,0,0h0s0,0,0,0h0s0,0,0,0h0s0,0,0,0h0s0,0,0,0h0s0,0,0,0h0s0,0,0,0h0s0,0,0,0h0s0,0,0,0h0s0,0,0,0h0s0,0,0,0h0s.1.14.1.14h0s0,0,0,0l.02.03h0s0,0,0,0h0s0,0,0,0h0s0,0,0,0h0s0,0,0,0h0s0,.02,0,.02h0s0,0,0,0l.02.03h0s0,0,0,0h0s0,0,0,0h0s0,0,0,0h0s0,0,0,0h0s0,0,0,0h0s0,0,0,0h0s.07.1.07.1h0s0,0,0,0h0s0,0,0,0h0s.02.04.02.04h0s0,0,0,0h0s0,0,0,0h0s0,0,0,0h0s.03.05.03.05h0s0,0,0,0h0s0,0,0,0h0s0,.01,0,.01h0s0,0,0,0h0s0,0,0,0h0s0,0,0,0h0s0,0,0,0l.07.09h0s0,0,0,0h0s.03.05.03.05h0s0,0,0,0h0s0,0,0,0h0s0,0,0,0h0s0,0,0,0h0s0,0,0,0h0s0,0,0,0h0s0,0,0,0h0s0,.01,0,.01h0s0,0,0,0h0s0,0,0,0h0s0,0,0,0h0s0,0,0,0h0s0,0,0,0h0s0,0,0,0h0s0,0,0,0h0s0,.01,0,.01h0s.04.06.06.09h0s0,0,0,0h0s0,0,0,0l.04.05h0s0,0,0,0h0s0,0,0,0h0s0,0,0,0h0s0,0,0,0h0s0,0,0,0h0s0,0,0,0h0s0,0,0,0h0s0,0,0,0h0s0,0,0,0h0s0,0,0,0h0s0,0,0,0h0s0,0,0,0h0s0,0,0,0h0s.06.08.09.12h0s0,0,0,0l.02.02h0s0,0,0,0h0s0,0,0,0h0s0,0,0,0h0s0,.01,0,.01l.04.05h0s0,0,0,0h0s0,0,0,0h0s0,0,0,0h0s0,0,0,0h0s0,0,0,0h0s0,0,0,0h0s0,0,0,0c.02.03.05.06.07.09h0s0,0,0,0h0s.03.04.03.04h0s0,0,0,0h0s0,0,0,0h0s0,0,0,0h0s0,0,0,0h0s0,0,0,0h0s0,0,0,0h0s0,0,0,0h0s0,0,0,0h0s0,0,0,0h0s0,0,0,0h0s0,0,0,0h0s0,0,0,0h0s0,0,0,0h0s0,0,0,0h0s0,0,0,0h0s0,0,0,0h0s0,.01,0,.01h0s0,0,0,0l.06.08h0s0,0,0,0h0s.04.05.04.05l.07.08h0s0,0,0,0h0s0,0,0,0h0s0,0,0,0h0s0,0,0,0h0s.07.08.07.08h0s0,0,0,0h0s0,0,0,0l.03.04h0s0,0,0,0h0s0,0,0,0h0s0,0,0,0h0s0,0,0,0h0s0,0,0,0l.04.04h0s0,0,0,0h0s0,0,0,0h0s0,0,0,0h0s0,0,0,0h0s0,0,0,0h0s0,0,0,0h0s.07.08.07.08h0s0,0,0,0h0s0,0,0,0l.05.05h0s0,0,0,0h0s0,0,0,0h0s0,0,0,0h0s0,0,0,0h0s0,0,0,0h0s0,0,0,0h0s0,0,0,0h0s0,0,0,0h0s0,0,0,0h0s0,0,0,0h0s0,0,0,0h0s0,0,0,0h0s0,0,0,0h0s0,0,0,0h0s0,0,0,0h0s.05.06.08.09h0s0,0,0,0l.05.05h0s0,0,0,0h0s0,0,0,0h0s0,0,0,0h0s0,0,0,0h0s0,0,0,0h0s0,0,0,0h0s0,0,0,0h0s0,0,0,0h0s0,0,0,0h0s0,0,0,0h0s0,0,0,0h0s0,0,0,0h0s0,0,0,0h0s0,0,0,0h0s0,0,0,0h0s0,0,0,0h0s0,0,0,0h0s.04.05.07.08h0s0,0,0,0l.05.05h0s0,0,0,0h0s0,0,0,0h0s0,0,0,0h0s0,0,0,0h0s0,0,0,0h0s0,0,0,0h0s0,0,0,0h0s0,0,0,0h0s0,0,0,0h0s0,0,0,0h0s0,0,0,0h0s0,0,0,0h0s0,0,0,0h0s0,0,0,0h0s0,0,0,0h0s0,0,0,0h0s0,0,0,0h0s.04.05.07.07h0s0,0,0,0h0s0,0,0,0l.06.06h0s0,0,0,0h0s0,0,0,0h0s0,0,0,0h0s0,0,0,0h0s0,0,0,0h0s0,0,0,0h0s0,0,0,0h0s0,0,0,0h0s0,0,0,0h0s0,0,0,0h0s0,0,0,0h0s0,0,0,0h0s0,0,0,0h0s0,0,0,0h0s0,0,0,0h0s0,0,0,0h0s0,0,0,0h0s0,0,0,0c.02.02.04.04.06.06h0s0,0,0,0h0s0,0,0,0h0s.04.04.04.04h0s0,0,0,0h0s0,0,0,0h0s0,0,0,0h0s0,0,0,0h.01s0,.01,0,.01h0s0,0,0,0h0s0,.01,0,.01h.01s0,.01,0,.01h0s0,0,0,0h0s0,0,0,0h0s0,0,0,0h0s0,0,0,0h0s0,0,0,0h0s.07.07.07.07h0s0,0,0,0h0s.04.05.04.05h0s0,0,0,0h0s0,0,0,0l.08.08h0s0,0,0,0h0s0,0,0,0h0s0,0,0,0h0s0,0,0,0h0s0,0,0,0h0s0,0,0,0l.05.05h0s0,0,0,0h0s.06.06.06.06h0s0,0,0,0h0s0,0,0,0h0s0,0,0,0h0s0,0,0,0h0s0,0,0,0h0s0,0,0,0h0s0,0,0,0h0s0,0,0,0h0s0,0,0,0h0s0,0,0,0h0s0,0,0,0h0s0,0,0,0h0s0,0,0,0h0s0,0,0,0h0s0,0,0,0h0s0,0,0,0l.08.07h0s0,0,0,0l.05.05h0s0,0,0,0h0s0,0,0,0h0s0,0,0,0h0s0,0,0,0h0s.02.02.02.02h0s0,0,0,0h0s0,0,0,0l.02.02h0s0,0,0,0h0s0,0,0,0h0s0,0,0,0h0s0,0,0,0h0s0,0,0,0h0s0,0,0,0h0s.05.05.05.05h0s0,0,0,0h0s0,0,0,0l.06.05h0s0,0,0,0h0s0,0,0,0h0s0,0,0,0h0s0,0,0,0h0s0,0,0,0h0s0,0,0,0h0s0,0,0,0h0s0,0,0,0h0s0,0,0,0h0s0,0,0,0h0s0,0,0,0h0s0,0,0,0h0s0,0,0,0h0s0,0,0,0h0s0,0,0,0h0s0,0,0,0h0s0,0,0,0h0s0,0,0,0c.02.02.05.04.07.07h0s.05.05.05.05h0s0,0,0,0h0s0,0,0,0h0s0,0,0,0h0s.07.06.07.06h0s0,0,0,0h0s0,0,0,0h0s0,0,0,0h0s0,0,0,0h0s.05.04.05.04h0s0,0,0,0h0s0,0,0,0l.07.06h0s0,0,0,0h0s0,0,0,0h0s0,0,0,0h0s0,0,0,0h0s0,0,0,0h0s0,0,0,0h0s0,0,0,0h0s0,0,0,0h0s0,.01,0,.01h0s0,0,0,0h0s0,0,0,0h0s0,0,0,0h0s0,0,0,0h0s0,0,0,0h0s0,0,0,0h0s0,0,0,0h0s.05.04.05.04h0s0,0,0,0h0s0,0,0,0l.08.07h0s0,0,0,0h0s0,0,0,0h0s0,0,0,0h0s0,0,0,0h.01s0,.01,0,.01h0s0,0,0,0h0s.02.01.02.01h0s0,.01,0,.01h0s0,0,0,0h0s0,0,0,0h0s0,0,0,0h0s0,0,0,0h0s0,0,0,0h0s0,0,0,0h0s.04.04.04.04h0s0,0,0,0h0s0,0,0,0l.05.04h0s0,0,0,0h0s0,0,0,0h0s0,0,0,0h0s0,0,0,0h0s0,0,0,0h0s0,0,0,0h0s0,0,0,0h0s0,0,0,0h0s0,0,0,0h0s0,0,0,0h0s0,0,0,0h0s0,0,0,0h0s0,0,0,0h0s0,0,0,0h0s0,0,0,0h0s0,0,0,0h0s0,0,0,0h0s0,0,0,0h0s0,0,0,0h0s0,0,0,0h0s0,0,0,0h0s0,0,0,0h0s0,0,0,0h0s0,0,0,0h0s0,0,0,0h0s0,0,0,0h0s.05.04.05.04h0s0,0,0,0h0s0,0,0,0h0s0,0,0,0h0s0,0,0,0h0s0,0,0,0h0s0,0,0,0h0s.04.03.04.03h0s0,0,0,0h0s0,0,0,0h0s0,0,0,0h0s0,0,0,0h0s0,0,0,0h0s0,0,0,0h0s0,0,0,0h0s0,0,0,0h0s0,0,0,0h0s0,0,0,0h0s0,0,0,0h0s0,0,0,0h0s0,0,0,0h0s0,0,0,0h0s0,0,0,0h0s0,0,0,0h0s0,0,0,0h0s0,0,0,0h0s0,0,0,0h0s0,0,0,0h0s0,0,0,0h0s0,0,0,0h0s0,0,0,0h0s0,0,0,0h0s0,0,0,0h0s0,0,0,0h0s0,0,0,0h0s0,0,0,0h0s0,0,0,0h0s.05.04.05.04h0s0,0,0,0l.07.05h0s0,0,0,0h0s0,0,0,0h0s0,0,0,0h0s0,0,0,0h0s0,0,0,0h0s0,0,0,0l.03.02h0s.02.02.02.02h0s0,0,0,0h0s0,0,0,0h0s0,0,0,0h0s0,0,0,0h0s0,0,0,0h0s0,0,0,0h0s0,0,0,0l.04.03h0s0,0,0,0h0s0,0,0,0h0s0,0,0,0h0s0,0,0,0h0s.04.03.04.03h0s0,0,0,0h0s0,0,0,0h0s0,0,0,0h0s0,0,0,0h0s0,0,0,0h0s0,0,0,0h0s0,0,0,0h0s0,0,0,0h0s0,0,0,0h0s0,0,0,0h0s0,0,0,0h0s0,0,0,0h0s0,0,0,0h0s0,0,0,0h0s0,0,0,0h0s.02.02.02.02h0s.02.01.02.01h0s0,0,0,0h0s0,0,0,0h0s0,0,0,0h0s0,0,0,0h0s0,0,0,0h0s0,0,0,0h0s0,0,0,0h0s.05.04.05.04l.07.05h0s0,0,0,0h0s0,0,0,0h0s0,0,0,0h0s.06.04.09.07h0s0,0,0,0h0s0,0,0,0h0s0,0,0,0h0s0,0,0,0h0s.03.02.03.02h0s0,0,0,0h0s0,0,0,0h0s0,0,0,0h0s0,0,0,0h0s.03.02.03.02h0s0,0,0,0h0s0,0,0,0h0s0,0,0,0h0s0,0,0,0h0s0,0,0,0h0s0,0,0,0h0s0,0,0,0h0s0,0,0,0h0s0,0,0,0h0s0,0,0,0h0s0,0,0,0h0s0,0,0,0h0s0,0,0,0h0s0,0,0,0h0s0,0,0,0h0s0,0,0,0h0s0,0,0,0h0s0,0,0,0h0s0,0,0,0h0s0,0,0,0h0s.01,0,.01,0h0s.02.01.02.01h0s0,0,0,0h.01s0,0,0,0h0s0,0,0,0h0s0,0,0,0h0s0,0,0,0h0s0,0,0,0h0s0,0,0,0h0s0,0,0,0l.04.02h0s0,0,0,0h0s0,0,0,0h0s0,0,0,0h0s0,0,0,0h0s0,0,0,0l.03.02h0s0,0,0,0h0s0,0,0,0h0s0,0,0,0h0s0,0,0,0h0s0,0,0,0h0s0,0,0,0h0s0,0,0,0h0s0,0,0,0h0s0,0,0,0h0s0,0,0,0h0s0,0,0,0h0s0,0,0,0h0s0,0,0,0h0s0,0,0,0h0s0,0,0,0h0s0,0,0,0h0s0,0,0,0h0s.1.06.1.06h0s0,0,0,0h0s0,0,0,0h0s0,0,0,0h0s.02.02.02.02h0s0,0,0,0h0s0,0,0,0h0s0,0,0,0c.02.01.04.02.06.03h0s0,0,0,0h0s0,0,0,0h0s0,0,0,0h0s0,0,0,0h0s0,0,0,0h0s0,0,0,0h0s0,0,0,0h0s0,0,0,0h0s0,0,0,0h0s0,0,0,0h0s0,0,0,0h0s0,0,0,0h0s0,0,0,0h0s0,0,0,0h0s0,0,0,0h0s0,0,0,0h0s0,0,0,0h0s.07.05.07.05h0s0,0,0,0h0s0,0,0,0h0s0,0,0,0h0s0,0,0,0l.03.02h0s0,0,0,0h0s0,0,0,0h0s0,0,0,0l.08.04h0s0,0,0,0h0s0,0,0,0h0s0,0,0,0h0s0,0,0,0h0s0,0,0,0h0s0,0,0,0h0s0,0,0,0h0s0,0,0,0h0s0,0,0,0h0s0,0,0,0h0s0,0,0,0h0s0,0,0,0h0s0,0,0,0h0s0,0,0,0h0s0,0,0,0h0s0,0,0,0h0s0,0,0,0h0s.02.01.02.01h0s0,0,0,0h0s0,0,0,0h0s0,0,0,0h0s0,0,0,0h0s0,0,0,0h0s0,0,0,0l.03.02h0s0,0,0,0h0s0,0,0,0h0l.06.04h0s0,0,0,0h0s0,0,0,0h0s0,0,0,0h0s0,0,0,0h0s0,0,0,0h0s0,0,0,0h0s0,0,0,0h0s0,0,0,0h0s0,0,0,0h0s0,0,0,0h0s0,0,0,0h0s0,0,0,0h0s0,0,0,0h0s0,0,0,0h0s0,0,0,0h0s0,0,0,0h0s0,0,0,0h0s0,0,0,0h0s0,0,0,0h0s0,0,0,0h0s0,0,0,0h0s0,0,0,0h0s0,0,0,0h0s0,0,0,0h.01s0,0,0,0h0s0,0,0,0h0s0,0,0,0h0s0,0,0,0h0s0,0,0,0h0s0,0,0,0h0s0,0,0,0h0s0,0,0,0h0s0,0,0,0h0s0,0,0,0h0s.02.01.02.01h0s0,0,0,0h0s0,0,0,0h0s0,0,0,0l.07.03h0s0,0,0,0h0s0,0,0,0h0s0,0,0,0h0s0,0,0,0h0s0,0,0,0h0s0,0,0,0h0s0,0,0,0h0s0,0,0,0h0s0,0,0,0h0s0,0,0,0h0s0,0,0,0h0s0,0,0,0h0s0,0,0,0h0s0,0,0,0h0s0,0,0,0h0s0,0,0,0h0s0,0,0,0h0s0,0,0,0h0s0,0,0,0h0s0,0,0,0h0s0,0,0,0h0s0,0,0,0h0s0,0,0,0h0s0,0,0,0h0s0,0,0,0h0s0,0,0,0h0s0,0,0,0h0s0,0,0,0h0s0,0,0,0h0s0,0,0,0h0s0,0,0,0h0s0,0,0,0c.01,0,.03.01.04.02h0s0,0,0,0h0s0,0,0,0h0s0,0,0,0h0s0,0,0,0h0s0,0,0,0l.05.03h0s0,0,0,0h0s0,0,0,0h0s0,0,0,0h0s0,0,0,0h0s0,0,0,0h0s0,0,0,0h0s0,0,0,0h0s0,0,0,0h0s0,0,0,0h0s0,0,0,0h0s0,0,0,0h0s.01,0,.01,0h0s.08.04.08.04h0s0,0,0,0h0s0,0,0,0h0s0,0,0,0h0s0,0,0,0h0s.03.02.03.02h0s0,0,0,0h0s0,0,0,0h0s0,0,0,0h0s.05.03.05.03h0s0,0,0,0h0s0,0,0,0h0s0,0,0,0h0s0,0,0,0h0s0,0,0,0h0s0,0,0,0h0s0,0,0,0h0s0,0,0,0h0s0,0,0,0h0s0,0,0,0l.11.05h0s0,0,0,0h0s0,0,0,0h0s0,0,0,0h0s0,0,0,0h.02s0,.01,0,.01h0s0,0,0,0h0s.06.03.06.03h0s0,0,0,0h0s0,0,0,0h0s0,0,0,0h0s0,0,0,0h0s0,0,0,0h0s0,0,0,0h0s0,0,0,0h0s0,0,0,0h0s0,0,0,0h0s0,0,0,0h0s0,0,0,0h0s0,0,0,0h0s0,0,0,0h0s0,0,0,0h0s0,0,0,0h0s0,0,0,0h0s0,0,0,0h0s.05.03.05.03h0s0,0,0,0h0s0,0,0,0h0s0,0,0,0h0s0,0,0,0h0s0,0,0,0h0s0,0,0,0h.03s0,.01,0,.01h0s0,0,0,0h0s0,0,0,0h0s0,0,0,0l.07.03h0s0,0,0,0h0s0,0,0,0h0s0,0,0,0h0s0,0,0,0h0s0,0,0,0h0s0,0,0,0h0s0,0,0,0h0s0,0,0,0h0s0,0,0,0h0s0,0,0,0h0s0,0,0,0h0s0,0,0,0h0s0,0,0,0h0s0,0,0,0h0s0,0,0,0l.05.02h0s0,0,0,0h0s0,0,0,0h0s0,0,0,0h0s0,0,0,0h0s0,0,0,0h0s0,0,0,0h0s.02,0,.02,0h0s0,0,0,0h0s0,0,0,0h0s0,0,0,0c.03.01.05.02.08.03h0s0,0,0,0h0s0,0,0,0h0s0,0,0,0h0s0,0,0,0h0s0,0,0,0h0s0,0,0,0h0s0,0,0,0h0s0,0,0,0h0s0,0,0,0h0s0,0,0,0h0s0,0,0,0h0s0,0,0,0h0s0,0,0,0h0s0,0,0,0h0s0,0,0,0h0s0,0,0,0h0s0,0,0,0h0s0,0,0,0h0s0,0,0,0h0s0,0,0,0h0s0,0,0,0h0s0,0,0,0h0s0,0,0,0h0s0,0,0,0h0s0,0,0,0h0s0,0,0,0h0s0,0,0,0h0s0,0,0,0h0s0,0,0,0h0s0,0,0,0h0s0,0,0,0h0s0,0,0,0h0s0,0,0,0h.02s0,0,0,0h0s0,0,0,0h0s0,0,0,0h0s.09.04.09.04h0s0,0,0,0h0s0,0,0,0h0s0,0,0,0h0s0,0,0,0h0s0,0,0,0h0s0,0,0,0h0s0,0,0,0h0s0,0,0,0h0s0,0,0,0h0s0,0,0,0h0s0,0,0,0h0s0,0,0,0h0s0,0,0,0h.01s0,0,0,0h0s0,0,0,0l.06.02h0s0,0,0,0h0s0,0,0,0h0s0,0,0,0h0s0,0,0,0h0s0,0,0,0h0s0,0,0,0c.04.01.08.03.11.04h0s0,0,0,0h0s0,0,0,0h0s0,0,0,0h0s0,0,0,0h0s0,0,0,0h0s0,0,0,0h0s0,0,0,0h0s0,0,0,0h0s0,0,0,0h0s0,0,0,0h0s0,0,0,0h0s0,0,0,0h0s0,0,0,0h0s0,0,0,0h0s0,0,0,0h0s0,0,0,0h.01s0,0,0,0h0s0,0,0,0h0s0,0,0,0h0s0,0,0,0h0s0,0,0,0h0s0,0,0,0h0s0,0,0,0h0s0,0,0,0h0s0,0,0,0h0s0,0,0,0h0s0,0,0,0h0s.07.02.1.03h0s0,0,0,0h0s0,0,0,0h0s0,0,0,0h0s0,0,0,0h0s0,0,0,0h0s0,0,0,0h0s0,0,0,0h0s0,0,0,0h0s0,0,0,0h0s0,0,0,0h0s0,0,0,0h0s0,0,0,0h0s0,0,0,0h0s0,0,0,0h0s.06.02.06.02h0s0,0,0,0h0s0,0,0,0h0s0,0,0,0h0s0,0,0,0h0s0,0,0,0h0s0,0,0,0h0s.08.03.12.04h0s0,0,0,0h0s0,0,0,0h0s0,0,0,0h0s0,0,0,0h0s0,0,0,0h0s0,0,0,0h0s0,0,0,0h0s0,0,0,0h0s0,0,0,0h0s0,0,0,0h0s0,0,0,0h0s0,0,0,0h0s0,0,0,0h0s0,0,0,0h0s0,0,0,0h0s0,0,0,0h0s0,0,0,0h.03s0,0,0,0h0s0,0,0,0h0s0,0,0,0h0s0,0,0,0h0s.01,0,.01,0h0s0,0,0,0c.03,0,.06.02.09.02h0s0,0,0,0h0s0,0,0,0h0s0,0,0,0h0s0,0,0,0h0s0,0,0,0h0s0,0,0,0h0s0,0,0,0h0s0,0,0,0h0s0,0,0,0h0s0,0,0,0h0s0,0,0,0h0s0,0,0,0h0s0,0,0,0h0s0,0,0,0h0s0,0,0,0l.07.02h0s0,0,0,0h0s0,0,0,0h0s0,0,0,0h0s0,0,0,0h0s0,0,0,0h0s0,0,0,0l.06.02h0s0,0,0,0h0s0,0,0,0h0s0,0,0,0h0s0,0,0,0h0s0,0,0,0h0s0,0,0,0h0s0,0,0,0h0s0,0,0,0h0s0,0,0,0h0s0,0,0,0h0s0,0,0,0h0s0,0,0,0h0s0,0,0,0c.03,0,.07.02.1.03h0s0,0,0,0h0s0,0,0,0h0s0,0,0,0h0s0,0,0,0h0s.08.02.11.03h0s0,0,0,0h0s0,0,0,0h0s0,0,0,0h0s0,0,0,0h0s0,0,0,0h0s0,0,0,0h0s0,0,0,0h0s0,0,0,0h0s0,0,0,0h0s0,0,0,0h0s0,0,0,0h0s0,0,0,0h0s0,0,0,0h0s0,0,0,0h0s0,0,0,0h0s.06.01.06.01h0s0,0,0,0h0s0,0,0,0h0s0,0,0,0c.05,0,.09.02.14.03h0s0,0,0,0h0s0,0,0,0h0s0,0,0,0h0s0,0,0,0h0s0,0,0,0h0s0,0,0,0h0s0,0,0,0h0s0,0,0,0h0s0,0,0,0h0s0,0,0,0h.06s0,.01,0,.01h0s0,0,0,0h0s0,0,0,0h0s0,0,0,0h0s0,0,0,0h0c.05.01.11.02.16.03h0s0,0,0,0h0s0,0,0,0h0s0,0,0,0h0s0,0,0,0h0s0,0,0,0h0s0,0,0,0h0s0,0,0,0h0s0,0,0,0h0s0,0,0,0h0s0,0,0,0h0s.04,0,.04,0h0s0,0,0,0h0s0,0,0,0h0s.09.01.13.02h0s0,0,0,0h0s0,0,0,0h0s0,0,0,0h0s0,0,0,0h0s0,0,0,0h0s0,0,0,0h0s0,0,0,0h0s0,0,0,0h0s0,0,0,0h0s0,0,0,0h.07s0,.01,0,.01h0s0,0,0,0h0s0,0,0,0h0c.09.01.18.03.27.04h.01c.06,0,.12.01.18.02h0s0,0,0,0h0s0,0,0,0h0s0,0,0,0h0s0,0,0,0h0s0,0,0,0h0s.03,0,.03,0h0s0,0,0,0h0c.09,0,.18.02.28.02h0c.09,0,.19.01.28.02h0c.09,0,.19,0,.28,0,8.62.18,14.55-4.09,18.15-10.79-.25,2.88-.32,5.62-.3,8.31,0,.59.03,3.34.42,6.15.18,1.25.73,2.31,1.52,3.23h0Z"/>
  <path class="cls-4" d="M151.38,127.48c-1.16-5.51-3.24-10.16-8.57-13.73-9.35-6.26-27.61-10.81-34.43-14.86-7.36,22.45-38.36,17.68-42.16-.36-8.04,2.94-29.54,7.99-37.7,15.41-2.11,1.92-4.04,7.62-4.57,9.89l-1.42,9.1c14.39,18.76,37.04,30.85,62.51,30.85,27.86,0,52.35-14.47,66.34-36.31h0Z"/>
</svg>